# WaveFront *.obj file (generated by Autodesk ATF)

mtllib marker_01.mtl

g ソリッド1

v -0.018000 0.000000 -0.018000
v -0.018000 0.000000 0.018000
v -0.018000 0.002000 -0.018000
v -0.018000 0.002000 0.018000
v -0.016000 0.001900 -0.016000
v -0.016000 0.001900 0.016000
v -0.016000 0.002000 -0.016000
v -0.016000 0.002000 0.016000
v -0.011429 0.001900 0.006858
v -0.011429 0.001900 0.011429
v -0.011429 0.002000 0.006858
v -0.011429 0.002000 0.011429
v -0.006857 0.001900 -0.006855
v -0.006857 0.001900 -0.002284
v -0.006857 0.001900 0.002287
v -0.006857 0.001900 0.006858
v -0.006857 0.002000 -0.006855
v -0.006857 0.002000 -0.002284
v -0.006857 0.002000 0.002287
v -0.006857 0.002000 0.006858
v -0.002286 0.001900 -0.006855
v -0.002286 0.001900 -0.002284
v -0.002286 0.002000 -0.006855
v -0.002286 0.002000 -0.002284
v 0.002286 0.001900 -0.011426
v 0.002286 0.001900 -0.006855
v 0.002286 0.001900 0.006858
v 0.002286 0.001900 0.011429
v 0.002286 0.002000 -0.011426
v 0.002286 0.002000 -0.006855
v 0.002286 0.002000 0.006858
v 0.002286 0.002000 0.011429
v 0.006857 0.001900 -0.011426
v 0.006857 0.001900 -0.006855
v 0.006857 0.001900 -0.002284
v 0.006857 0.001900 0.002287
v 0.006857 0.001900 0.006858
v 0.006857 0.001900 0.011429
v 0.006857 0.002000 -0.011426
v 0.006857 0.002000 -0.006855
v 0.006857 0.002000 -0.002284
v 0.006857 0.002000 0.002287
v 0.006857 0.002000 0.006858
v 0.006857 0.002000 0.011429
v 0.011429 0.001900 -0.006855
v 0.011429 0.001900 -0.002284
v 0.011429 0.001900 0.006858
v 0.011429 0.001900 0.011429
v 0.011429 0.002000 -0.006855
v 0.011429 0.002000 -0.002284
v 0.011429 0.002000 0.006858
v 0.011429 0.002000 0.011429
v 0.016000 0.001900 -0.016000
v 0.016000 0.001900 0.016000
v 0.016000 0.002000 -0.016000
v 0.016000 0.002000 0.016000
v 0.018000 0.000000 -0.018000
v 0.018000 0.000000 0.018000
v 0.018000 0.002000 -0.018000
v 0.018000 0.002000 0.018000
vt 1.600000 -1.600000 0.000000
vt 1.600000 1.600000 0.000000
vt -1.600000 1.600000 0.000000
vt -1.600000 -1.600000 0.000000
vt -1.142643 0.228571 0.000000
vt -1.142643 0.685714 0.000000
vt -0.685543 0.685714 0.000000
vt -0.685543 1.142857 0.000000
vt -0.228443 1.142857 0.000000
vt -0.228443 0.685714 0.000000
vt -0.685543 0.685714 0.000000
vt -0.685543 0.228571 0.000000
vt 0.685757 -1.142857 0.000000
vt 0.685757 -0.685714 0.000000
vt 0.228657 -0.685714 0.000000
vt 0.228657 0.685714 0.000000
vt 0.685757 0.685714 0.000000
vt 0.685757 1.142857 0.000000
vt 1.142857 1.142857 0.000000
vt 1.142857 0.685714 0.000000
vt 0.685757 0.685714 0.000000
vt 0.685757 0.228571 0.000000
vt 1.142857 0.228571 0.000000
vt 1.142857 -1.142857 0.000000
vt -0.685543 -0.685714 0.000000
vt -0.685543 -0.228571 0.000000
vt -0.228443 -0.228571 0.000000
vt -0.228443 -0.685714 0.000000
vt 0.000000 0.190000 0.000000
vt 0.457143 0.190000 0.000000
vt 0.457143 0.200000 0.000000
vt 0.000000 0.200000 0.000000
vt 0.000000 0.190000 0.000000
vt 0.457100 0.190000 0.000000
vt 0.457100 0.200000 0.000000
vt 0.000000 0.200000 0.000000
vt 0.000000 0.190000 0.000000
vt 0.457143 0.190000 0.000000
vt 0.457143 0.200000 0.000000
vt 0.000000 0.200000 0.000000
vt 0.000000 0.190000 0.000000
vt 0.457100 0.190000 0.000000
vt 0.457100 0.200000 0.000000
vt 0.000000 0.200000 0.000000
vt -0.228550 -0.228571 0.000000
vt 0.228550 -0.228571 0.000000
vt 0.228550 0.228571 0.000000
vt -0.228550 0.228571 0.000000
vt 0.000000 0.190000 0.000000
vt 0.457100 0.190000 0.000000
vt 0.457100 0.200000 0.000000
vt 0.000000 0.200000 0.000000
vt 0.000000 0.190000 0.000000
vt 0.457143 0.190000 0.000000
vt 0.457143 0.200000 0.000000
vt 0.000000 0.200000 0.000000
vt 0.000000 0.190000 0.000000
vt 0.457143 0.190000 0.000000
vt 0.457143 0.200000 0.000000
vt 0.000000 0.200000 0.000000
vt 0.000000 0.190000 0.000000
vt 0.457100 0.190000 0.000000
vt 0.457100 0.200000 0.000000
vt 0.000000 0.200000 0.000000
vt 0.000000 0.190000 0.000000
vt 1.371429 0.190000 0.000000
vt 1.371429 0.200000 0.000000
vt 0.000000 0.200000 0.000000
vt 0.000000 0.190000 0.000000
vt 0.457100 0.190000 0.000000
vt 0.457100 0.200000 0.000000
vt 0.000000 0.200000 0.000000
vt 0.000000 0.190000 0.000000
vt 0.457143 0.190000 0.000000
vt 0.457143 0.200000 0.000000
vt 0.000000 0.200000 0.000000
vt 0.000000 0.190000 0.000000
vt 0.457100 0.190000 0.000000
vt 0.457100 0.200000 0.000000
vt 0.000000 0.200000 0.000000
vt -0.228550 -0.228571 0.000000
vt 0.228550 -0.228571 0.000000
vt 0.228550 0.228571 0.000000
vt -0.228550 0.228571 0.000000
vt 0.000000 0.190000 0.000000
vt 0.457143 0.190000 0.000000
vt 0.457143 0.200000 0.000000
vt 0.000000 0.200000 0.000000
vt 0.000000 0.190000 0.000000
vt 0.457100 0.190000 0.000000
vt 0.457100 0.200000 0.000000
vt 0.000000 0.200000 0.000000
vt 0.000000 0.190000 0.000000
vt 1.371429 0.190000 0.000000
vt 1.371429 0.200000 0.000000
vt 0.000000 0.200000 0.000000
vt 0.000000 0.190000 0.000000
vt 0.457100 0.190000 0.000000
vt 0.457100 0.200000 0.000000
vt 0.000000 0.200000 0.000000
vt 0.000000 -0.914286 0.000000
vt 0.457100 -0.914286 0.000000
vt 0.457100 0.457143 0.000000
vt 0.000000 0.457143 0.000000
vt 0.000000 0.914286 0.000000
vt -0.457100 0.914286 0.000000
vt -0.457100 -0.457143 0.000000
vt 0.000000 -0.457143 0.000000
vt 0.000000 0.190000 0.000000
vt 0.457100 0.190000 0.000000
vt 0.457100 0.200000 0.000000
vt 0.000000 0.200000 0.000000
vt 0.000000 0.190000 0.000000
vt 0.457143 0.190000 0.000000
vt 0.457143 0.200000 0.000000
vt 0.000000 0.200000 0.000000
vt 0.000000 0.190000 0.000000
vt 0.457143 0.190000 0.000000
vt 0.457143 0.200000 0.000000
vt 0.000000 0.200000 0.000000
vt 0.000000 0.190000 0.000000
vt 0.457100 0.190000 0.000000
vt 0.457100 0.200000 0.000000
vt 0.000000 0.200000 0.000000
vt 0.000000 0.190000 0.000000
vt 0.457143 0.190000 0.000000
vt 0.457143 0.200000 0.000000
vt 0.000000 0.200000 0.000000
vt 0.000000 0.190000 0.000000
vt 0.457100 0.190000 0.000000
vt 0.457100 0.200000 0.000000
vt 0.000000 0.200000 0.000000
vt -0.228550 -0.228571 0.000000
vt 0.228550 -0.228571 0.000000
vt 0.228550 0.228571 0.000000
vt -0.228550 0.228571 0.000000
vt 0.000000 0.190000 0.000000
vt 0.457143 0.190000 0.000000
vt 0.457143 0.200000 0.000000
vt 0.000000 0.200000 0.000000
vt 0.000000 0.190000 0.000000
vt 0.457100 0.190000 0.000000
vt 0.457100 0.200000 0.000000
vt 0.000000 0.200000 0.000000
vt -0.228550 -0.228571 0.000000
vt 0.228550 -0.228571 0.000000
vt 0.228550 0.228571 0.000000
vt -0.228550 0.228571 0.000000
vt 3.600000 0.000000 0.000000
vt 3.600000 0.200000 0.000000
vt 0.000000 0.200000 0.000000
vt 0.000000 0.000000 0.000000
vt 3.600000 0.000000 0.000000
vt 3.600000 0.200000 0.000000
vt 0.000000 0.200000 0.000000
vt 0.000000 0.000000 0.000000
vt 0.000000 0.190000 0.000000
vt 3.200000 0.190000 0.000000
vt 3.200000 0.200000 0.000000
vt 0.000000 0.200000 0.000000
vt 0.000000 0.190000 0.000000
vt 3.200000 0.190000 0.000000
vt 3.200000 0.200000 0.000000
vt 0.000000 0.200000 0.000000
vt 0.000000 0.190000 0.000000
vt 3.200000 0.190000 0.000000
vt 3.200000 0.200000 0.000000
vt 0.000000 0.200000 0.000000
vt 0.000000 0.190000 0.000000
vt 3.200000 0.190000 0.000000
vt 3.200000 0.200000 0.000000
vt 0.000000 0.200000 0.000000
vt 3.600000 0.000000 0.000000
vt 3.600000 0.200000 0.000000
vt 0.000000 0.200000 0.000000
vt 0.000000 0.000000 0.000000
vt 3.600000 0.000000 0.000000
vt 3.600000 0.200000 0.000000
vt 0.000000 0.200000 0.000000
vt 0.000000 0.000000 0.000000
vt 1.800000 1.800000 0.000000
vt -1.800000 1.800000 0.000000
vt -1.800000 -1.800000 0.000000
vt 1.800000 -1.800000 0.000000
vt 1.600000 -1.600000 0.000000
vt -1.600000 -1.600000 0.000000
vt -1.600000 1.600000 0.000000
vt 1.600000 1.600000 0.000000
vt 1.800000 1.800000 0.000000
vt -1.800000 1.800000 0.000000
vt -1.800000 -1.800000 0.000000
vt 1.800000 -1.800000 0.000000
vn 0.000000 100.000000 0.000000
vn 0.000000 100.000000 0.000000
vn 0.000000 100.000000 0.000000
vn 0.000000 100.000000 0.000000
vn 0.000000 100.000000 0.000000
vn 0.000000 100.000000 0.000000
vn 0.000000 100.000000 0.000000
vn 0.000000 100.000000 0.000000
vn 0.000000 100.000000 0.000000
vn 0.000000 100.000000 0.000000
vn 0.000000 100.000000 0.000000
vn 0.000000 100.000000 0.000000
vn 0.000000 100.000000 0.000000
vn 0.000000 100.000000 0.000000
vn 0.000000 100.000000 0.000000
vn 0.000000 100.000000 0.000000
vn 0.000000 100.000000 0.000000
vn 0.000000 100.000000 0.000000
vn 0.000000 100.000000 0.000000
vn 0.000000 100.000000 0.000000
vn 0.000000 100.000000 0.000000
vn 0.000000 100.000000 0.000000
vn 0.000000 100.000000 0.000000
vn 0.000000 100.000000 0.000000
vn 0.000000 100.000000 0.000000
vn 0.000000 100.000000 0.000000
vn 0.000000 100.000000 0.000000
vn 0.000000 100.000000 0.000000
vn 0.000000 0.000000 100.000000
vn 0.000000 0.000000 100.000000
vn 0.000000 0.000000 100.000000
vn 0.000000 0.000000 100.000000
vn 100.000000 0.000000 0.000000
vn 100.000000 0.000000 0.000000
vn 100.000000 0.000000 0.000000
vn 100.000000 0.000000 0.000000
vn 0.000000 0.000000 -100.000000
vn 0.000000 0.000000 -100.000000
vn 0.000000 0.000000 -100.000000
vn 0.000000 0.000000 -100.000000
vn -100.000000 0.000000 0.000000
vn -100.000000 0.000000 0.000000
vn -100.000000 0.000000 0.000000
vn -100.000000 0.000000 0.000000
vn 0.000000 100.000000 0.000000
vn 0.000000 100.000000 0.000000
vn 0.000000 100.000000 0.000000
vn 0.000000 100.000000 0.000000
vn 100.000000 0.000000 0.000000
vn 100.000000 0.000000 0.000000
vn 100.000000 0.000000 0.000000
vn 100.000000 0.000000 0.000000
vn 0.000000 0.000000 -100.000000
vn 0.000000 0.000000 -100.000000
vn 0.000000 0.000000 -100.000000
vn 0.000000 0.000000 -100.000000
vn 0.000000 0.000000 100.000000
vn 0.000000 0.000000 100.000000
vn 0.000000 0.000000 100.000000
vn 0.000000 0.000000 100.000000
vn 100.000000 0.000000 0.000000
vn 100.000000 0.000000 0.000000
vn 100.000000 0.000000 0.000000
vn 100.000000 0.000000 0.000000
vn 0.000000 0.000000 -100.000000
vn 0.000000 0.000000 -100.000000
vn 0.000000 0.000000 -100.000000
vn 0.000000 0.000000 -100.000000
vn -100.000000 0.000000 0.000000
vn -100.000000 0.000000 0.000000
vn -100.000000 0.000000 0.000000
vn -100.000000 0.000000 0.000000
vn 0.000000 0.000000 100.000000
vn 0.000000 0.000000 100.000000
vn 0.000000 0.000000 100.000000
vn 0.000000 0.000000 100.000000
vn -100.000000 0.000000 0.000000
vn -100.000000 0.000000 0.000000
vn -100.000000 0.000000 0.000000
vn -100.000000 0.000000 0.000000
vn 0.000000 100.000000 0.000000
vn 0.000000 100.000000 0.000000
vn 0.000000 100.000000 0.000000
vn 0.000000 100.000000 0.000000
vn 0.000000 0.000000 -100.000000
vn 0.000000 0.000000 -100.000000
vn 0.000000 0.000000 -100.000000
vn 0.000000 0.000000 -100.000000
vn 100.000000 0.000000 0.000000
vn 100.000000 0.000000 0.000000
vn 100.000000 0.000000 0.000000
vn 100.000000 0.000000 0.000000
vn 0.000000 0.000000 100.000000
vn 0.000000 0.000000 100.000000
vn 0.000000 0.000000 100.000000
vn 0.000000 0.000000 100.000000
vn -100.000000 0.000000 0.000000
vn -100.000000 0.000000 0.000000
vn -100.000000 0.000000 0.000000
vn -100.000000 0.000000 0.000000
vn 0.000000 100.000000 0.000000
vn 0.000000 100.000000 0.000000
vn 0.000000 100.000000 0.000000
vn 0.000000 100.000000 0.000000
vn 0.000000 100.000000 0.000000
vn 0.000000 100.000000 0.000000
vn 0.000000 100.000000 0.000000
vn 0.000000 100.000000 0.000000
vn 100.000000 0.000000 0.000000
vn 100.000000 0.000000 0.000000
vn 100.000000 0.000000 0.000000
vn 100.000000 0.000000 0.000000
vn 0.000000 0.000000 -100.000000
vn 0.000000 0.000000 -100.000000
vn 0.000000 0.000000 -100.000000
vn 0.000000 0.000000 -100.000000
vn 0.000000 0.000000 100.000000
vn 0.000000 0.000000 100.000000
vn 0.000000 0.000000 100.000000
vn 0.000000 0.000000 100.000000
vn 100.000000 0.000000 0.000000
vn 100.000000 0.000000 0.000000
vn 100.000000 0.000000 0.000000
vn 100.000000 0.000000 0.000000
vn 0.000000 0.000000 -100.000000
vn 0.000000 0.000000 -100.000000
vn 0.000000 0.000000 -100.000000
vn 0.000000 0.000000 -100.000000
vn -100.000000 0.000000 0.000000
vn -100.000000 0.000000 0.000000
vn -100.000000 0.000000 0.000000
vn -100.000000 0.000000 0.000000
vn 0.000000 100.000000 0.000000
vn 0.000000 100.000000 0.000000
vn 0.000000 100.000000 0.000000
vn 0.000000 100.000000 0.000000
vn 0.000000 0.000000 100.000000
vn 0.000000 0.000000 100.000000
vn 0.000000 0.000000 100.000000
vn 0.000000 0.000000 100.000000
vn -100.000000 0.000000 0.000000
vn -100.000000 0.000000 0.000000
vn -100.000000 0.000000 0.000000
vn -100.000000 0.000000 0.000000
vn 0.000000 100.000000 0.000000
vn 0.000000 100.000000 0.000000
vn 0.000000 100.000000 0.000000
vn 0.000000 100.000000 0.000000
vn -100.000000 0.000000 0.000000
vn -100.000000 0.000000 0.000000
vn -100.000000 0.000000 0.000000
vn -100.000000 0.000000 0.000000
vn 0.000000 0.000000 100.000000
vn 0.000000 0.000000 100.000000
vn 0.000000 0.000000 100.000000
vn 0.000000 0.000000 100.000000
vn 0.000000 0.000000 100.000000
vn 0.000000 0.000000 100.000000
vn 0.000000 0.000000 100.000000
vn 0.000000 0.000000 100.000000
vn -100.000000 0.000000 0.000000
vn -100.000000 0.000000 0.000000
vn -100.000000 0.000000 0.000000
vn -100.000000 0.000000 0.000000
vn 0.000000 0.000000 -100.000000
vn 0.000000 0.000000 -100.000000
vn 0.000000 0.000000 -100.000000
vn 0.000000 0.000000 -100.000000
vn 100.000000 0.000000 0.000000
vn 100.000000 0.000000 0.000000
vn 100.000000 0.000000 0.000000
vn 100.000000 0.000000 0.000000
vn 0.000000 0.000000 -100.000000
vn 0.000000 0.000000 -100.000000
vn 0.000000 0.000000 -100.000000
vn 0.000000 0.000000 -100.000000
vn 100.000000 0.000000 0.000000
vn 100.000000 0.000000 0.000000
vn 100.000000 0.000000 0.000000
vn 100.000000 0.000000 0.000000
vn 0.000000 100.000000 0.000000
vn 0.000000 100.000000 0.000000
vn 0.000000 100.000000 0.000000
vn 0.000000 100.000000 0.000000
vn 0.000000 100.000000 0.000000
vn 0.000000 100.000000 0.000000
vn 0.000000 100.000000 0.000000
vn 0.000000 100.000000 0.000000
vn 0.000000 -100.000000 0.000000
vn 0.000000 -100.000000 0.000000
vn 0.000000 -100.000000 0.000000
vn 0.000000 -100.000000 0.000000
usemtl 0,0,0
f 54/2/2 28/23/23 6/1/1
f 6/1/1 28/23/23 10/24/24
f 6/1/1 10/24/24 9/13/13
f 53/3/3 46/9/9 54/2/2
f 54/2/2 46/9/9 47/18/18
f 54/2/2 47/18/18 48/19/19
f 5/4/4 25/5/5 53/3/3
f 53/3/3 25/5/5 33/6/6
f 53/3/3 33/6/6 45/8/8
f 45/8/8 33/6/6 34/7/7
f 6/1/1 9/13/13 5/4/4
f 5/4/4 9/13/13 14/28/28
f 5/4/4 14/28/28 13/25/25
f 45/8/8 46/9/9 53/3/3
f 47/18/18 46/9/9 36/16/16
f 36/16/16 46/9/9 35/10/10
f 36/16/16 35/10/10 22/27/27
f 22/27/27 35/10/10 26/12/12
f 22/27/27 26/12/12 21/26/26
f 21/26/26 26/12/12 25/5/5
f 21/26/26 25/5/5 13/25/25
f 13/25/25 25/5/5 5/4/4
f 35/10/10 34/11/11 26/12/12
f 16/14/14 15/15/15 9/13/13
f 9/13/13 15/15/15 14/28/28
f 14/28/28 15/15/15 22/27/27
f 22/27/27 15/15/15 36/16/16
f 36/16/16 37/17/17 47/18/18
f 48/19/19 38/20/20 54/2/2
f 54/2/2 38/20/20 28/23/23
f 38/20/20 37/21/21 28/23/23
f 28/23/23 37/21/21 27/22/22
f 14/29/29 22/30/30 18/32/32
f 18/32/32 22/30/30 24/31/31
f 22/33/33 21/34/34 24/36/36
f 24/36/36 21/34/34 23/35/35
f 21/37/37 13/38/38 23/40/40
f 23/40/40 13/38/38 17/39/39
f 13/41/41 14/42/42 17/44/44
f 17/44/44 14/42/42 18/43/43
usemtl 255,255,255
f 17/45/45 18/46/46 23/48/48
f 23/48/48 18/46/46 24/47/47
usemtl 0,0,0
f 48/49/49 47/50/50 52/52/52
f 52/52/52 47/50/50 51/51/51
f 47/53/53 37/54/54 51/56/56
f 51/56/56 37/54/54 43/55/55
f 27/57/57 37/58/58 31/60/60
f 31/60/60 37/58/58 43/59/59
f 37/61/61 36/62/62 43/64/64
f 43/64/64 36/62/62 42/63/63
f 36/65/65 15/66/66 42/68/68
f 42/68/68 15/66/66 19/67/67
f 15/69/69 16/70/70 19/72/72
f 19/72/72 16/70/70 20/71/71
f 38/73/73 48/74/74 44/76/76
f 44/76/76 48/74/74 52/75/75
f 37/77/77 38/78/78 43/80/80
f 43/80/80 38/78/78 44/79/79
usemtl 255,255,255
f 43/81/81 44/82/82 51/84/84
f 51/84/84 44/82/82 52/83/83
usemtl 0,0,0
f 16/85/85 9/86/86 20/88/88
f 20/88/88 9/86/86 11/87/87
f 28/89/89 27/90/90 32/92/92
f 32/92/92 27/90/90 31/91/91
f 10/93/93 28/94/94 12/96/96
f 12/96/96 28/94/94 32/95/95
f 9/97/97 10/98/98 11/100/100
f 11/100/100 10/98/98 12/99/99
usemtl 255,255,255
f 11/101/101 12/102/102 20/108/108
f 20/108/108 12/102/102 32/103/103
f 20/108/108 32/103/103 31/104/104
f 43/105/105 42/106/106 31/104/104
f 31/104/104 42/106/106 19/107/107
f 31/104/104 19/107/107 20/108/108
usemtl 0,0,0
f 46/109/109 45/110/110 50/112/112
f 50/112/112 45/110/110 49/111/111
f 45/113/113 34/114/114 49/116/116
f 49/116/116 34/114/114 40/115/115
f 26/117/117 34/118/118 30/120/120
f 30/120/120 34/118/118 40/119/119
f 34/121/121 33/122/122 40/124/124
f 40/124/124 33/122/122 39/123/123
f 33/125/125 25/126/126 39/128/128
f 39/128/128 25/126/126 29/127/127
f 25/129/129 26/130/130 29/132/132
f 29/132/132 26/130/130 30/131/131
usemtl 255,255,255
f 29/133/133 30/134/134 39/136/136
f 39/136/136 30/134/134 40/135/135
usemtl 0,0,0
f 35/137/137 46/138/138 41/140/140
f 41/140/140 46/138/138 50/139/139
f 34/141/141 35/142/142 40/144/144
f 40/144/144 35/142/142 41/143/143
usemtl 255,255,255
f 40/145/145 41/146/146 49/148/148
f 49/148/148 41/146/146 50/147/147
f 4/150/150 3/151/151 2/149/149
f 2/149/149 3/151/151 1/152/152
f 60/154/154 4/155/155 58/153/153
f 58/153/153 4/155/155 2/156/156
usemtl 0,0,0
f 5/157/157 53/158/158 7/160/160
f 7/160/160 53/158/158 55/159/159
f 53/161/161 54/162/162 55/164/164
f 55/164/164 54/162/162 56/163/163
f 54/165/165 6/166/166 56/168/168
f 56/168/168 6/166/166 8/167/167
f 6/169/169 5/170/170 8/172/172
f 8/172/172 5/170/170 7/171/171
usemtl 255,255,255
f 3/174/174 59/175/175 1/173/173
f 1/173/173 59/175/175 57/176/176
f 59/178/178 60/179/179 57/177/177
f 57/177/177 60/179/179 58/180/180
f 4/184/184 60/181/181 56/188/188
f 56/188/188 60/181/181 59/182/182
f 56/188/188 59/182/182 55/187/187
f 55/187/187 59/182/182 3/183/183
f 55/187/187 3/183/183 7/186/186
f 7/186/186 3/183/183 4/184/184
f 7/186/186 4/184/184 8/185/185
f 8/185/185 4/184/184 56/188/188
f 57/189/189 58/190/190 1/192/192
f 1/192/192 58/190/190 2/191/191
# 60 vertices
# 192 texture params
# 192 normals
# 120 facets

# 1 groups
