# WaveFront *.obj file (generated by Autodesk ATF)

mtllib marker_02.mtl

g ソリッド1

v -0.018000 0.000000 -0.018000
v -0.018000 0.000000 0.018000
v -0.018000 0.002000 -0.018000
v -0.018000 0.002000 0.018000
v -0.016000 0.001900 -0.016000
v -0.016000 0.001900 0.016000
v -0.016000 0.002000 -0.016000
v -0.016000 0.002000 0.016000
v -0.011429 0.001900 -0.006855
v -0.011429 0.001900 -0.002284
v -0.011429 0.002000 -0.006855
v -0.011429 0.002000 -0.002284
v -0.006857 0.001900 -0.006855
v -0.006857 0.001900 -0.002284
v -0.006857 0.001900 0.002287
v -0.006857 0.001900 0.006858
v -0.006857 0.002000 -0.006855
v -0.006857 0.002000 -0.002284
v -0.006857 0.002000 0.002287
v -0.006857 0.002000 0.006858
v 0.002286 0.001900 -0.011426
v 0.002286 0.001900 -0.006855
v 0.002286 0.001900 0.002287
v 0.002286 0.001900 0.006858
v 0.002286 0.001900 0.011429
v 0.002286 0.002000 -0.011426
v 0.002286 0.002000 -0.006855
v 0.002286 0.002000 0.002287
v 0.002286 0.002000 0.006858
v 0.002286 0.002000 0.011429
v 0.006857 0.001900 -0.006855
v 0.006857 0.001900 -0.002284
v 0.006857 0.001900 0.002287
v 0.006857 0.001900 0.006858
v 0.006857 0.002000 -0.006855
v 0.006857 0.002000 -0.002284
v 0.006857 0.002000 0.002287
v 0.006857 0.002000 0.006858
v 0.011429 0.001900 -0.011426
v 0.011429 0.001900 -0.002284
v 0.011429 0.001900 0.002287
v 0.011429 0.001900 0.011429
v 0.011429 0.002000 -0.011426
v 0.011429 0.002000 -0.002284
v 0.011429 0.002000 0.002287
v 0.011429 0.002000 0.011429
v 0.016000 0.001900 -0.016000
v 0.016000 0.001900 0.016000
v 0.016000 0.002000 -0.016000
v 0.016000 0.002000 0.016000
v 0.018000 0.000000 -0.018000
v 0.018000 0.000000 0.018000
v 0.018000 0.002000 -0.018000
v 0.018000 0.002000 0.018000
vt 1.600000 -1.600000 0.000000
vt 1.600000 1.600000 0.000000
vt -1.600000 1.600000 0.000000
vt -1.600000 -1.600000 0.000000
vt 0.228657 -0.685714 0.000000
vt 0.228657 0.228571 0.000000
vt 0.685757 0.228571 0.000000
vt 0.685757 0.685714 0.000000
vt 0.228657 0.685714 0.000000
vt 0.228657 1.142857 0.000000
vt 1.142857 1.142857 0.000000
vt 1.142857 0.228571 0.000000
vt 0.685757 0.228571 0.000000
vt 0.685757 -0.685714 0.000000
vt -0.685543 -1.142857 0.000000
vt -0.685543 -0.685714 0.000000
vt -0.228443 -0.685714 0.000000
vt -0.228443 -1.142857 0.000000
vt -0.685543 0.685714 0.000000
vt -0.685543 0.228571 0.000000
vt -1.142643 0.228571 0.000000
vt -1.142643 1.142857 0.000000
vt -0.228443 1.142857 0.000000
vt -0.228443 0.685714 0.000000
vt 0.000000 0.190000 0.000000
vt 0.914200 0.190000 0.000000
vt 0.914200 0.200000 0.000000
vt 0.000000 0.200000 0.000000
vt 0.000000 0.190000 0.000000
vt 0.914286 0.190000 0.000000
vt 0.914286 0.200000 0.000000
vt 0.000000 0.200000 0.000000
vt 0.000000 0.190000 0.000000
vt 0.457100 0.190000 0.000000
vt 0.457100 0.200000 0.000000
vt 0.000000 0.200000 0.000000
vt 0.000000 0.190000 0.000000
vt 0.457143 0.190000 0.000000
vt 0.457143 0.200000 0.000000
vt 0.000000 0.200000 0.000000
vt 0.000000 0.190000 0.000000
vt 0.457143 0.190000 0.000000
vt 0.457143 0.200000 0.000000
vt 0.000000 0.200000 0.000000
vt 0.000000 0.190000 0.000000
vt 0.457100 0.190000 0.000000
vt 0.457100 0.200000 0.000000
vt 0.000000 0.200000 0.000000
vt -0.228550 -0.228571 0.000000
vt 0.228550 -0.228571 0.000000
vt 0.228550 0.228571 0.000000
vt -0.685650 0.228571 0.000000
vt -0.685650 -0.685714 0.000000
vt -0.228550 -0.685714 0.000000
vt 0.000000 0.190000 0.000000
vt 0.457143 0.190000 0.000000
vt 0.457143 0.200000 0.000000
vt 0.000000 0.200000 0.000000
vt 0.000000 0.190000 0.000000
vt 0.457100 0.190000 0.000000
vt 0.457100 0.200000 0.000000
vt 0.000000 0.200000 0.000000
vt 0.000000 0.190000 0.000000
vt 0.457143 0.190000 0.000000
vt 0.457143 0.200000 0.000000
vt 0.000000 0.200000 0.000000
vt 0.000000 0.190000 0.000000
vt 0.457100 0.190000 0.000000
vt 0.457100 0.200000 0.000000
vt 0.000000 0.200000 0.000000
vt -0.228550 -0.228571 0.000000
vt 0.228550 -0.228571 0.000000
vt 0.228550 0.228571 0.000000
vt -0.228550 0.228571 0.000000
vt 0.000000 0.190000 0.000000
vt 0.457143 0.190000 0.000000
vt 0.457143 0.200000 0.000000
vt 0.000000 0.200000 0.000000
vt 0.000000 0.190000 0.000000
vt 0.457100 0.190000 0.000000
vt 0.457100 0.200000 0.000000
vt 0.000000 0.200000 0.000000
vt 0.000000 0.190000 0.000000
vt 0.457143 0.190000 0.000000
vt 0.457143 0.200000 0.000000
vt 0.000000 0.200000 0.000000
vt 0.000000 0.190000 0.000000
vt 0.914286 0.190000 0.000000
vt 0.914286 0.200000 0.000000
vt 0.000000 0.200000 0.000000
vt 0.000000 0.190000 0.000000
vt 0.457100 0.190000 0.000000
vt 0.457100 0.200000 0.000000
vt 0.000000 0.200000 0.000000
vt 0.000000 0.190000 0.000000
vt 0.914200 0.190000 0.000000
vt 0.914200 0.200000 0.000000
vt 0.000000 0.200000 0.000000
vt 0.000000 0.190000 0.000000
vt 0.914286 0.190000 0.000000
vt 0.914286 0.200000 0.000000
vt 0.000000 0.200000 0.000000
vt 0.000000 0.190000 0.000000
vt 0.457100 0.190000 0.000000
vt 0.457100 0.200000 0.000000
vt 0.000000 0.200000 0.000000
vt -0.685650 -0.228571 0.000000
vt -0.228550 -0.228571 0.000000
vt -0.228550 -0.685714 0.000000
vt 0.228550 -0.685714 0.000000
vt 0.228550 0.228571 0.000000
vt -0.685650 0.228571 0.000000
vt 0.000000 0.190000 0.000000
vt 0.914286 0.190000 0.000000
vt 0.914286 0.200000 0.000000
vt 0.000000 0.200000 0.000000
vt 0.000000 0.190000 0.000000
vt 0.457100 0.190000 0.000000
vt 0.457100 0.200000 0.000000
vt 0.000000 0.200000 0.000000
vt -0.228550 -0.457143 0.000000
vt 0.228550 -0.457143 0.000000
vt 0.228550 0.457143 0.000000
vt -0.228550 0.457143 0.000000
vt 3.600000 0.000000 0.000000
vt 3.600000 0.200000 0.000000
vt 0.000000 0.200000 0.000000
vt 0.000000 0.000000 0.000000
vt 3.600000 0.000000 0.000000
vt 3.600000 0.200000 0.000000
vt 0.000000 0.200000 0.000000
vt 0.000000 0.000000 0.000000
vt 0.000000 0.190000 0.000000
vt 3.200000 0.190000 0.000000
vt 3.200000 0.200000 0.000000
vt 0.000000 0.200000 0.000000
vt 0.000000 0.190000 0.000000
vt 3.200000 0.190000 0.000000
vt 3.200000 0.200000 0.000000
vt 0.000000 0.200000 0.000000
vt 0.000000 0.190000 0.000000
vt 3.200000 0.190000 0.000000
vt 3.200000 0.200000 0.000000
vt 0.000000 0.200000 0.000000
vt 0.000000 0.190000 0.000000
vt 3.200000 0.190000 0.000000
vt 3.200000 0.200000 0.000000
vt 0.000000 0.200000 0.000000
vt 3.600000 0.000000 0.000000
vt 3.600000 0.200000 0.000000
vt 0.000000 0.200000 0.000000
vt 0.000000 0.000000 0.000000
vt 3.600000 0.000000 0.000000
vt 3.600000 0.200000 0.000000
vt 0.000000 0.200000 0.000000
vt 0.000000 0.000000 0.000000
vt 1.800000 1.800000 0.000000
vt -1.800000 1.800000 0.000000
vt -1.800000 -1.800000 0.000000
vt 1.800000 -1.800000 0.000000
vt 1.600000 -1.600000 0.000000
vt -1.600000 -1.600000 0.000000
vt -1.600000 1.600000 0.000000
vt 1.600000 1.600000 0.000000
vt 1.800000 1.800000 0.000000
vt -1.800000 1.800000 0.000000
vt -1.800000 -1.800000 0.000000
vt 1.800000 -1.800000 0.000000
vn 0.000000 100.000000 0.000000
vn 0.000000 100.000000 0.000000
vn 0.000000 100.000000 0.000000
vn 0.000000 100.000000 0.000000
vn 0.000000 100.000000 0.000000
vn 0.000000 100.000000 0.000000
vn 0.000000 100.000000 0.000000
vn 0.000000 100.000000 0.000000
vn 0.000000 100.000000 0.000000
vn 0.000000 100.000000 0.000000
vn 0.000000 100.000000 0.000000
vn 0.000000 100.000000 0.000000
vn 0.000000 100.000000 0.000000
vn 0.000000 100.000000 0.000000
vn 0.000000 100.000000 0.000000
vn 0.000000 100.000000 0.000000
vn 0.000000 100.000000 0.000000
vn 0.000000 100.000000 0.000000
vn 0.000000 100.000000 0.000000
vn 0.000000 100.000000 0.000000
vn 0.000000 100.000000 0.000000
vn 0.000000 100.000000 0.000000
vn 0.000000 100.000000 0.000000
vn 0.000000 100.000000 0.000000
vn 100.000000 0.000000 0.000000
vn 100.000000 0.000000 0.000000
vn 100.000000 0.000000 0.000000
vn 100.000000 0.000000 0.000000
vn 0.000000 0.000000 -100.000000
vn 0.000000 0.000000 -100.000000
vn 0.000000 0.000000 -100.000000
vn 0.000000 0.000000 -100.000000
vn -100.000000 0.000000 0.000000
vn -100.000000 0.000000 0.000000
vn -100.000000 0.000000 0.000000
vn -100.000000 0.000000 0.000000
vn 0.000000 0.000000 100.000000
vn 0.000000 0.000000 100.000000
vn 0.000000 0.000000 100.000000
vn 0.000000 0.000000 100.000000
vn 0.000000 0.000000 100.000000
vn 0.000000 0.000000 100.000000
vn 0.000000 0.000000 100.000000
vn 0.000000 0.000000 100.000000
vn -100.000000 0.000000 0.000000
vn -100.000000 0.000000 0.000000
vn -100.000000 0.000000 0.000000
vn -100.000000 0.000000 0.000000
vn 0.000000 100.000000 0.000000
vn 0.000000 100.000000 0.000000
vn 0.000000 100.000000 0.000000
vn 0.000000 100.000000 0.000000
vn 0.000000 100.000000 0.000000
vn 0.000000 100.000000 0.000000
vn 0.000000 0.000000 100.000000
vn 0.000000 0.000000 100.000000
vn 0.000000 0.000000 100.000000
vn 0.000000 0.000000 100.000000
vn 100.000000 0.000000 0.000000
vn 100.000000 0.000000 0.000000
vn 100.000000 0.000000 0.000000
vn 100.000000 0.000000 0.000000
vn 0.000000 0.000000 -100.000000
vn 0.000000 0.000000 -100.000000
vn 0.000000 0.000000 -100.000000
vn 0.000000 0.000000 -100.000000
vn -100.000000 0.000000 0.000000
vn -100.000000 0.000000 0.000000
vn -100.000000 0.000000 0.000000
vn -100.000000 0.000000 0.000000
vn 0.000000 100.000000 0.000000
vn 0.000000 100.000000 0.000000
vn 0.000000 100.000000 0.000000
vn 0.000000 100.000000 0.000000
vn 0.000000 0.000000 -100.000000
vn 0.000000 0.000000 -100.000000
vn 0.000000 0.000000 -100.000000
vn 0.000000 0.000000 -100.000000
vn -100.000000 0.000000 0.000000
vn -100.000000 0.000000 0.000000
vn -100.000000 0.000000 0.000000
vn -100.000000 0.000000 0.000000
vn 0.000000 0.000000 -100.000000
vn 0.000000 0.000000 -100.000000
vn 0.000000 0.000000 -100.000000
vn 0.000000 0.000000 -100.000000
vn 0.000000 0.000000 100.000000
vn 0.000000 0.000000 100.000000
vn 0.000000 0.000000 100.000000
vn 0.000000 0.000000 100.000000
vn 100.000000 0.000000 0.000000
vn 100.000000 0.000000 0.000000
vn 100.000000 0.000000 0.000000
vn 100.000000 0.000000 0.000000
vn 100.000000 0.000000 0.000000
vn 100.000000 0.000000 0.000000
vn 100.000000 0.000000 0.000000
vn 100.000000 0.000000 0.000000
vn 0.000000 0.000000 100.000000
vn 0.000000 0.000000 100.000000
vn 0.000000 0.000000 100.000000
vn 0.000000 0.000000 100.000000
vn -100.000000 0.000000 0.000000
vn -100.000000 0.000000 0.000000
vn -100.000000 0.000000 0.000000
vn -100.000000 0.000000 0.000000
vn 0.000000 100.000000 0.000000
vn 0.000000 100.000000 0.000000
vn 0.000000 100.000000 0.000000
vn 0.000000 100.000000 0.000000
vn 0.000000 100.000000 0.000000
vn 0.000000 100.000000 0.000000
vn 0.000000 0.000000 -100.000000
vn 0.000000 0.000000 -100.000000
vn 0.000000 0.000000 -100.000000
vn 0.000000 0.000000 -100.000000
vn -100.000000 0.000000 0.000000
vn -100.000000 0.000000 0.000000
vn -100.000000 0.000000 0.000000
vn -100.000000 0.000000 0.000000
vn 0.000000 100.000000 0.000000
vn 0.000000 100.000000 0.000000
vn 0.000000 100.000000 0.000000
vn 0.000000 100.000000 0.000000
vn -100.000000 0.000000 0.000000
vn -100.000000 0.000000 0.000000
vn -100.000000 0.000000 0.000000
vn -100.000000 0.000000 0.000000
vn 0.000000 0.000000 100.000000
vn 0.000000 0.000000 100.000000
vn 0.000000 0.000000 100.000000
vn 0.000000 0.000000 100.000000
vn 0.000000 0.000000 100.000000
vn 0.000000 0.000000 100.000000
vn 0.000000 0.000000 100.000000
vn 0.000000 0.000000 100.000000
vn -100.000000 0.000000 0.000000
vn -100.000000 0.000000 0.000000
vn -100.000000 0.000000 0.000000
vn -100.000000 0.000000 0.000000
vn 0.000000 0.000000 -100.000000
vn 0.000000 0.000000 -100.000000
vn 0.000000 0.000000 -100.000000
vn 0.000000 0.000000 -100.000000
vn 100.000000 0.000000 0.000000
vn 100.000000 0.000000 0.000000
vn 100.000000 0.000000 0.000000
vn 100.000000 0.000000 0.000000
vn 0.000000 0.000000 -100.000000
vn 0.000000 0.000000 -100.000000
vn 0.000000 0.000000 -100.000000
vn 0.000000 0.000000 -100.000000
vn 100.000000 0.000000 0.000000
vn 100.000000 0.000000 0.000000
vn 100.000000 0.000000 0.000000
vn 100.000000 0.000000 0.000000
vn 0.000000 100.000000 0.000000
vn 0.000000 100.000000 0.000000
vn 0.000000 100.000000 0.000000
vn 0.000000 100.000000 0.000000
vn 0.000000 100.000000 0.000000
vn 0.000000 100.000000 0.000000
vn 0.000000 100.000000 0.000000
vn 0.000000 100.000000 0.000000
vn 0.000000 -100.000000 0.000000
vn 0.000000 -100.000000 0.000000
vn 0.000000 -100.000000 0.000000
vn 0.000000 -100.000000 0.000000
usemtl 0,0,0
f 48/2/2 25/12/12 6/1/1
f 6/1/1 25/12/12 16/14/14
f 6/1/1 16/14/14 10/18/18
f 10/18/18 16/14/14 15/5/5
f 10/18/18 15/5/5 14/17/17
f 14/17/17 15/5/5 23/6/6
f 14/17/17 23/6/6 22/20/20
f 22/20/20 23/6/6 32/24/24
f 22/20/20 32/24/24 31/19/19
f 47/3/3 40/23/23 48/2/2
f 48/2/2 40/23/23 41/10/10
f 48/2/2 41/10/10 42/11/11
f 5/4/4 21/21/21 47/3/3
f 47/3/3 21/21/21 39/22/22
f 47/3/3 39/22/22 40/23/23
f 6/1/1 10/18/18 5/4/4
f 5/4/4 10/18/18 9/15/15
f 5/4/4 9/15/15 13/16/16
f 32/24/24 23/6/6 33/9/9
f 33/9/9 23/6/6 24/7/7
f 33/9/9 24/7/7 34/8/8
f 32/24/24 33/9/9 40/23/23
f 40/23/23 33/9/9 41/10/10
f 42/11/11 25/12/12 48/2/2
f 25/12/12 24/13/13 16/14/14
f 14/17/17 22/20/20 13/16/16
f 13/16/16 22/20/20 21/21/21
f 13/16/16 21/21/21 5/4/4
f 40/25/25 39/26/26 44/28/28
f 44/28/28 39/26/26 43/27/27
f 39/29/29 21/30/30 43/32/32
f 43/32/32 21/30/30 26/31/31
f 21/33/33 22/34/34 26/36/36
f 26/36/36 22/34/34 27/35/35
f 22/37/37 31/38/38 27/40/40
f 27/40/40 31/38/38 35/39/39
f 32/41/41 40/42/42 36/44/44
f 36/44/44 40/42/42 44/43/43
f 31/45/45 32/46/46 35/48/48
f 35/48/48 32/46/46 36/47/47
usemtl 255,255,255
f 36/50/50 44/51/51 35/49/49
f 35/49/49 44/51/51 43/52/52
f 35/49/49 43/52/52 26/53/53
f 26/53/53 27/54/54 35/49/49
usemtl 0,0,0
f 10/55/55 14/56/56 12/58/58
f 12/58/58 14/56/56 18/57/57
f 14/59/59 13/60/60 18/62/62
f 18/62/62 13/60/60 17/61/61
f 13/63/63 9/64/64 17/66/66
f 17/66/66 9/64/64 11/65/65
f 9/67/67 10/68/68 11/70/70
f 11/70/70 10/68/68 12/69/69
usemtl 255,255,255
f 11/71/71 12/72/72 17/74/74
f 17/74/74 12/72/72 18/73/73
usemtl 0,0,0
f 41/75/75 33/76/76 45/78/78
f 45/78/78 33/76/76 37/77/77
f 33/79/79 34/80/80 37/82/82
f 37/82/82 34/80/80 38/81/81
f 34/83/83 24/84/84 38/86/86
f 38/86/86 24/84/84 29/85/85
f 16/87/87 24/88/88 20/90/90
f 20/90/90 24/88/88 29/89/89
f 24/91/91 23/92/92 29/94/94
f 29/94/94 23/92/92 28/93/93
f 42/95/95 41/96/96 46/98/98
f 46/98/98 41/96/96 45/97/97
f 25/99/99 42/100/100 30/102/102
f 30/102/102 42/100/100 46/101/101
f 24/103/103 25/104/104 29/106/106
f 29/106/106 25/104/104 30/105/105
usemtl 255,255,255
f 37/107/107 38/108/108 45/112/112
f 45/112/112 38/108/108 46/111/111
f 46/111/111 38/108/108 30/110/110
f 30/110/110 38/108/108 29/109/109
usemtl 0,0,0
f 23/113/113 15/114/114 28/116/116
f 28/116/116 15/114/114 19/115/115
f 15/117/117 16/118/118 19/120/120
f 19/120/120 16/118/118 20/119/119
usemtl 255,255,255
f 19/121/121 20/122/122 28/124/124
f 28/124/124 20/122/122 29/123/123
f 4/126/126 3/127/127 2/125/125
f 2/125/125 3/127/127 1/128/128
f 54/130/130 4/131/131 52/129/129
f 52/129/129 4/131/131 2/132/132
usemtl 0,0,0
f 5/133/133 47/134/134 7/136/136
f 7/136/136 47/134/134 49/135/135
f 47/137/137 48/138/138 49/140/140
f 49/140/140 48/138/138 50/139/139
f 48/141/141 6/142/142 50/144/144
f 50/144/144 6/142/142 8/143/143
f 6/145/145 5/146/146 8/148/148
f 8/148/148 5/146/146 7/147/147
usemtl 255,255,255
f 3/150/150 53/151/151 1/149/149
f 1/149/149 53/151/151 51/152/152
f 53/154/154 54/155/155 51/153/153
f 51/153/153 54/155/155 52/156/156
f 4/160/160 54/157/157 50/164/164
f 50/164/164 54/157/157 53/158/158
f 50/164/164 53/158/158 49/163/163
f 49/163/163 53/158/158 3/159/159
f 49/163/163 3/159/159 7/162/162
f 7/162/162 3/159/159 4/160/160
f 7/162/162 4/160/160 8/161/161
f 8/161/161 4/160/160 50/164/164
f 51/165/165 52/166/166 1/168/168
f 1/168/168 52/166/166 2/167/167
# 54 vertices
# 168 texture params
# 168 normals
# 106 facets

# 1 groups
