# WaveFront *.obj file (generated by Autodesk ATF)

mtllib marker_00.mtl

g ソリッド1

v -0.018000 0.000000 -0.018000
v -0.018000 0.000000 0.018000
v -0.018000 0.002000 -0.018000
v -0.018000 0.002000 0.018000
v -0.016000 0.001900 -0.016000
v -0.016000 0.001900 0.016000
v -0.016000 0.002000 -0.016000
v -0.016000 0.002000 0.016000
v -0.011429 0.001900 -0.006855
v -0.011429 0.001900 0.006858
v -0.011429 0.002000 -0.006855
v -0.011429 0.002000 0.006858
v -0.006857 0.001900 -0.006855
v -0.006857 0.001900 -0.002284
v -0.006857 0.001900 0.002287
v -0.006857 0.001900 0.006858
v -0.006857 0.002000 -0.006855
v -0.006857 0.002000 -0.002284
v -0.006857 0.002000 0.002287
v -0.006857 0.002000 0.006858
v -0.002286 0.001900 -0.011426
v -0.002286 0.001900 -0.006855
v -0.002286 0.002000 -0.011426
v -0.002286 0.002000 -0.006855
v 0.002286 0.001900 -0.006855
v 0.002286 0.001900 -0.002284
v 0.002286 0.001900 0.002287
v 0.002286 0.002000 -0.006855
v 0.002286 0.002000 -0.002284
v 0.002286 0.002000 0.002287
v 0.006857 0.001900 0.002287
v 0.006857 0.001900 0.006858
v 0.006857 0.002000 0.002287
v 0.006857 0.002000 0.006858
v 0.011429 0.001900 -0.011426
v 0.011429 0.001900 -0.002284
v 0.011429 0.001900 0.002287
v 0.011429 0.001900 0.006858
v 0.011429 0.002000 -0.011426
v 0.011429 0.002000 -0.002284
v 0.011429 0.002000 0.002287
v 0.011429 0.002000 0.006858
v 0.016000 0.001900 -0.016000
v 0.016000 0.001900 0.016000
v 0.016000 0.002000 -0.016000
v 0.016000 0.002000 0.016000
v 0.018000 0.000000 -0.018000
v 0.018000 0.000000 0.018000
v 0.018000 0.002000 -0.018000
v 0.018000 0.002000 0.018000
vt 0.000000 0.190000 0.000000
vt 0.457100 0.190000 0.000000
vt 0.457100 0.200000 0.000000
vt 0.000000 0.200000 0.000000
vt 0.000000 0.190000 0.000000
vt 0.457143 0.190000 0.000000
vt 0.457143 0.200000 0.000000
vt 0.000000 0.200000 0.000000
vt 0.000000 0.190000 0.000000
vt 1.371429 0.190000 0.000000
vt 1.371429 0.200000 0.000000
vt 0.000000 0.200000 0.000000
vt 0.000000 0.190000 0.000000
vt 0.914200 0.190000 0.000000
vt 0.914200 0.200000 0.000000
vt 0.000000 0.200000 0.000000
vt 3.600000 0.000000 0.000000
vt 3.600000 0.200000 0.000000
vt 0.000000 0.200000 0.000000
vt 0.000000 0.000000 0.000000
vt 0.000000 0.190000 0.000000
vt 0.914286 0.190000 0.000000
vt 0.914286 0.200000 0.000000
vt 0.000000 0.200000 0.000000
vt 0.000000 0.190000 0.000000
vt 0.914286 0.190000 0.000000
vt 0.914286 0.200000 0.000000
vt 0.000000 0.200000 0.000000
vt 0.000000 0.190000 0.000000
vt 0.457100 0.190000 0.000000
vt 0.457100 0.200000 0.000000
vt 0.000000 0.200000 0.000000
vt 0.000000 0.190000 0.000000
vt 0.457143 0.190000 0.000000
vt 0.457143 0.200000 0.000000
vt 0.000000 0.200000 0.000000
vt 0.000000 0.190000 0.000000
vt 1.371300 0.190000 0.000000
vt 1.371300 0.200000 0.000000
vt 0.000000 0.200000 0.000000
vt 3.600000 0.000000 0.000000
vt 3.600000 0.200000 0.000000
vt 0.000000 0.200000 0.000000
vt 0.000000 0.000000 0.000000
vt 3.600000 0.000000 0.000000
vt 3.600000 0.200000 0.000000
vt 0.000000 0.200000 0.000000
vt 0.000000 0.000000 0.000000
vt 2.257207 0.885714 0.000000
vt -1.342793 0.885714 0.000000
vt -1.342793 -2.714286 0.000000
vt 2.257207 -2.714286 0.000000
vt 0.000000 0.190000 0.000000
vt 3.200000 0.190000 0.000000
vt 3.200000 0.200000 0.000000
vt 0.000000 0.200000 0.000000
vt 0.000000 0.190000 0.000000
vt 3.200000 0.190000 0.000000
vt 3.200000 0.200000 0.000000
vt 0.000000 0.200000 0.000000
vt 3.600000 0.000000 0.000000
vt 3.600000 0.200000 0.000000
vt 0.000000 0.200000 0.000000
vt 0.000000 0.000000 0.000000
vt 0.000000 0.190000 0.000000
vt 0.457143 0.190000 0.000000
vt 0.457143 0.200000 0.000000
vt 0.000000 0.200000 0.000000
vt 0.000000 0.190000 0.000000
vt 0.457100 0.190000 0.000000
vt 0.457100 0.200000 0.000000
vt 0.000000 0.200000 0.000000
vt 0.000000 0.190000 0.000000
vt 0.457100 0.190000 0.000000
vt 0.457100 0.200000 0.000000
vt 0.000000 0.200000 0.000000
vt 0.000000 0.190000 0.000000
vt 0.457143 0.190000 0.000000
vt 0.457143 0.200000 0.000000
vt 0.000000 0.200000 0.000000
vt 0.000000 0.190000 0.000000
vt 0.457100 0.190000 0.000000
vt 0.457100 0.200000 0.000000
vt 0.000000 0.200000 0.000000
vt 0.000000 0.190000 0.000000
vt 0.457100 0.190000 0.000000
vt 0.457100 0.200000 0.000000
vt 0.000000 0.200000 0.000000
vt -0.228550 -0.228571 0.000000
vt 0.228550 -0.228571 0.000000
vt 0.228550 0.228571 0.000000
vt -0.228550 0.228571 0.000000
vt 0.000000 0.190000 0.000000
vt 0.914286 0.190000 0.000000
vt 0.914286 0.200000 0.000000
vt 0.000000 0.200000 0.000000
vt 0.000000 0.190000 0.000000
vt 0.457100 0.190000 0.000000
vt 0.457100 0.200000 0.000000
vt 0.000000 0.200000 0.000000
vt 0.000000 0.190000 0.000000
vt 0.457143 0.190000 0.000000
vt 0.457143 0.200000 0.000000
vt 0.000000 0.200000 0.000000
vt 0.457100 -0.228571 0.000000
vt 0.457100 0.685714 0.000000
vt -0.457100 0.685714 0.000000
vt -0.457100 -0.685714 0.000000
vt 0.000000 -0.685714 0.000000
vt 0.000000 -0.228571 0.000000
vt 0.685650 -0.685714 0.000000
vt 0.685650 -0.228571 0.000000
vt 0.228550 -0.228571 0.000000
vt 0.228550 0.685714 0.000000
vt -0.228550 0.685714 0.000000
vt -0.228550 -0.228571 0.000000
vt -0.685650 -0.228571 0.000000
vt -0.685650 -0.685714 0.000000
vt 0.000000 0.190000 0.000000
vt 3.200000 0.190000 0.000000
vt 3.200000 0.200000 0.000000
vt 0.000000 0.200000 0.000000
vt 0.000000 0.190000 0.000000
vt 3.200000 0.190000 0.000000
vt 3.200000 0.200000 0.000000
vt 0.000000 0.200000 0.000000
vt 1.600000 -1.600000 0.000000
vt 1.600000 1.600000 0.000000
vt -1.600000 1.600000 0.000000
vt -1.600000 -1.600000 0.000000
vt 0.685757 -1.142857 0.000000
vt -0.685543 -1.142857 0.000000
vt -0.685543 -0.685714 0.000000
vt -0.228443 -0.685714 0.000000
vt -0.228443 0.228571 0.000000
vt -0.685543 0.228571 0.000000
vt -0.685543 -0.228571 0.000000
vt -1.142643 -0.228571 0.000000
vt -1.142643 1.142857 0.000000
vt -0.228443 1.142857 0.000000
vt -0.228443 0.228571 0.000000
vt 0.228657 0.228571 0.000000
vt 0.228657 -0.685714 0.000000
vt 0.685757 -0.685714 0.000000
vt 0.228657 0.685714 0.000000
vt 0.228657 1.142857 0.000000
vt 0.685757 1.142857 0.000000
vt 0.685757 0.685714 0.000000
vt 1.800000 1.800000 0.000000
vt -1.800000 1.800000 0.000000
vt -1.800000 -1.800000 0.000000
vt 1.800000 -1.800000 0.000000
vt 1.600000 -1.600000 0.000000
vt -1.600000 -1.600000 0.000000
vt -1.600000 1.600000 0.000000
vt 1.600000 1.600000 0.000000
vn -100.000000 0.000000 0.000000
vn -100.000000 0.000000 0.000000
vn -100.000000 0.000000 0.000000
vn -100.000000 0.000000 0.000000
vn 0.000000 0.000000 -100.000000
vn 0.000000 0.000000 -100.000000
vn 0.000000 0.000000 -100.000000
vn 0.000000 0.000000 -100.000000
vn 0.000000 0.000000 -100.000000
vn 0.000000 0.000000 -100.000000
vn 0.000000 0.000000 -100.000000
vn 0.000000 0.000000 -100.000000
vn 100.000000 0.000000 0.000000
vn 100.000000 0.000000 0.000000
vn 100.000000 0.000000 0.000000
vn 100.000000 0.000000 0.000000
vn 100.000000 0.000000 0.000000
vn 100.000000 0.000000 0.000000
vn 100.000000 0.000000 0.000000
vn 100.000000 0.000000 0.000000
vn 0.000000 0.000000 100.000000
vn 0.000000 0.000000 100.000000
vn 0.000000 0.000000 100.000000
vn 0.000000 0.000000 100.000000
vn 0.000000 0.000000 100.000000
vn 0.000000 0.000000 100.000000
vn 0.000000 0.000000 100.000000
vn 0.000000 0.000000 100.000000
vn 100.000000 0.000000 0.000000
vn 100.000000 0.000000 0.000000
vn 100.000000 0.000000 0.000000
vn 100.000000 0.000000 0.000000
vn 0.000000 0.000000 100.000000
vn 0.000000 0.000000 100.000000
vn 0.000000 0.000000 100.000000
vn 0.000000 0.000000 100.000000
vn -100.000000 0.000000 0.000000
vn -100.000000 0.000000 0.000000
vn -100.000000 0.000000 0.000000
vn -100.000000 0.000000 0.000000
vn 0.000000 0.000000 100.000000
vn 0.000000 0.000000 100.000000
vn 0.000000 0.000000 100.000000
vn 0.000000 0.000000 100.000000
vn -100.000000 0.000000 0.000000
vn -100.000000 0.000000 0.000000
vn -100.000000 0.000000 0.000000
vn -100.000000 0.000000 0.000000
vn 0.000000 -100.000000 0.000000
vn 0.000000 -100.000000 0.000000
vn 0.000000 -100.000000 0.000000
vn 0.000000 -100.000000 0.000000
vn 100.000000 0.000000 0.000000
vn 100.000000 0.000000 0.000000
vn 100.000000 0.000000 0.000000
vn 100.000000 0.000000 0.000000
vn 0.000000 0.000000 -100.000000
vn 0.000000 0.000000 -100.000000
vn 0.000000 0.000000 -100.000000
vn 0.000000 0.000000 -100.000000
vn 0.000000 0.000000 -100.000000
vn 0.000000 0.000000 -100.000000
vn 0.000000 0.000000 -100.000000
vn 0.000000 0.000000 -100.000000
vn 0.000000 0.000000 100.000000
vn 0.000000 0.000000 100.000000
vn 0.000000 0.000000 100.000000
vn 0.000000 0.000000 100.000000
vn 100.000000 0.000000 0.000000
vn 100.000000 0.000000 0.000000
vn 100.000000 0.000000 0.000000
vn 100.000000 0.000000 0.000000
vn -100.000000 0.000000 0.000000
vn -100.000000 0.000000 0.000000
vn -100.000000 0.000000 0.000000
vn -100.000000 0.000000 0.000000
vn 0.000000 0.000000 100.000000
vn 0.000000 0.000000 100.000000
vn 0.000000 0.000000 100.000000
vn 0.000000 0.000000 100.000000
vn -100.000000 0.000000 0.000000
vn -100.000000 0.000000 0.000000
vn -100.000000 0.000000 0.000000
vn -100.000000 0.000000 0.000000
vn 100.000000 0.000000 0.000000
vn 100.000000 0.000000 0.000000
vn 100.000000 0.000000 0.000000
vn 100.000000 0.000000 0.000000
vn 0.000000 100.000000 0.000000
vn 0.000000 100.000000 0.000000
vn 0.000000 100.000000 0.000000
vn 0.000000 100.000000 0.000000
vn 0.000000 0.000000 -100.000000
vn 0.000000 0.000000 -100.000000
vn 0.000000 0.000000 -100.000000
vn 0.000000 0.000000 -100.000000
vn 100.000000 0.000000 0.000000
vn 100.000000 0.000000 0.000000
vn 100.000000 0.000000 0.000000
vn 100.000000 0.000000 0.000000
vn 0.000000 0.000000 -100.000000
vn 0.000000 0.000000 -100.000000
vn 0.000000 0.000000 -100.000000
vn 0.000000 0.000000 -100.000000
vn 0.000000 100.000000 0.000000
vn 0.000000 100.000000 0.000000
vn 0.000000 100.000000 0.000000
vn 0.000000 100.000000 0.000000
vn 0.000000 100.000000 0.000000
vn 0.000000 100.000000 0.000000
vn 0.000000 100.000000 0.000000
vn 0.000000 100.000000 0.000000
vn 0.000000 100.000000 0.000000
vn 0.000000 100.000000 0.000000
vn 0.000000 100.000000 0.000000
vn 0.000000 100.000000 0.000000
vn 0.000000 100.000000 0.000000
vn 0.000000 100.000000 0.000000
vn 0.000000 0.000000 100.000000
vn 0.000000 0.000000 100.000000
vn 0.000000 0.000000 100.000000
vn 0.000000 0.000000 100.000000
vn -100.000000 0.000000 0.000000
vn -100.000000 0.000000 0.000000
vn -100.000000 0.000000 0.000000
vn -100.000000 0.000000 0.000000
vn 0.000000 100.000000 0.000000
vn 0.000000 100.000000 0.000000
vn 0.000000 100.000000 0.000000
vn 0.000000 100.000000 0.000000
vn 0.000000 100.000000 0.000000
vn 0.000000 100.000000 0.000000
vn 0.000000 100.000000 0.000000
vn 0.000000 100.000000 0.000000
vn 0.000000 100.000000 0.000000
vn 0.000000 100.000000 0.000000
vn 0.000000 100.000000 0.000000
vn 0.000000 100.000000 0.000000
vn 0.000000 100.000000 0.000000
vn 0.000000 100.000000 0.000000
vn 0.000000 100.000000 0.000000
vn 0.000000 100.000000 0.000000
vn 0.000000 100.000000 0.000000
vn 0.000000 100.000000 0.000000
vn 0.000000 100.000000 0.000000
vn 0.000000 100.000000 0.000000
vn 0.000000 100.000000 0.000000
vn 0.000000 100.000000 0.000000
vn 0.000000 100.000000 0.000000
vn 0.000000 100.000000 0.000000
vn 0.000000 100.000000 0.000000
vn 0.000000 100.000000 0.000000
vn 0.000000 100.000000 0.000000
vn 0.000000 100.000000 0.000000
vn 0.000000 100.000000 0.000000
vn 0.000000 100.000000 0.000000
usemtl 0,0,0
f 31/1/1 32/2/2 33/4/4
f 33/4/4 32/2/2 34/3/3
f 37/5/5 31/6/6 41/8/8
f 41/8/8 31/6/6 33/7/7
f 35/9/9 21/10/10 39/12/12
f 39/12/12 21/10/10 23/11/11
f 36/13/13 35/14/14 40/16/16
f 40/16/16 35/14/14 39/15/15
usemtl 255,255,255
f 49/18/18 50/19/19 47/17/17
f 47/17/17 50/19/19 48/20/20
usemtl 0,0,0
f 26/21/21 36/22/22 29/24/24
f 29/24/24 36/22/22 40/23/23
f 15/25/25 27/26/26 19/28/28
f 19/28/28 27/26/26 30/27/27
f 16/29/29 15/30/30 20/32/32
f 20/32/32 15/30/30 19/31/31
f 10/33/33 16/34/34 12/36/36
f 12/36/36 16/34/34 20/35/35
f 9/37/37 10/38/38 11/40/40
f 11/40/40 10/38/38 12/39/39
usemtl 255,255,255
f 50/42/42 4/43/43 48/41/41
f 48/41/41 4/43/43 2/44/44
f 4/46/46 3/47/47 2/45/45
f 2/45/45 3/47/47 1/48/48
f 47/49/49 48/50/50 1/52/52
f 1/52/52 48/50/50 2/51/51
usemtl 0,0,0
f 6/53/53 5/54/54 8/56/56
f 8/56/56 5/54/54 7/55/55
f 44/57/57 6/58/58 46/60/60
f 46/60/60 6/58/58 8/59/59
usemtl 255,255,255
f 3/62/62 49/63/63 1/61/61
f 1/61/61 49/63/63 47/64/64
usemtl 0,0,0
f 32/65/65 38/66/66 34/68/68
f 34/68/68 38/66/66 42/67/67
f 38/69/69 37/70/70 42/72/72
f 42/72/72 37/70/70 41/71/71
f 21/73/73 22/74/74 23/76/76
f 23/76/76 22/74/74 24/75/75
f 22/77/77 25/78/78 24/80/80
f 24/80/80 25/78/78 28/79/79
f 25/81/81 26/82/82 28/84/84
f 28/84/84 26/82/82 29/83/83
f 27/85/85 26/86/86 30/88/88
f 30/88/88 26/86/86 29/87/87
usemtl 255,255,255
f 33/89/89 34/90/90 41/92/92
f 41/92/92 34/90/90 42/91/91
usemtl 0,0,0
f 26/93/93 14/94/94 29/96/96
f 29/96/96 14/94/94 18/95/95
f 14/97/97 13/98/98 18/100/100
f 18/100/100 13/98/98 17/99/99
f 13/101/101 9/102/102 17/104/104
f 17/104/104 9/102/102 11/103/103
usemtl 255,255,255
f 29/105/105 40/106/106 28/110/110
f 28/110/110 40/106/106 39/107/107
f 28/110/110 39/107/107 23/108/108
f 23/108/108 24/109/109 28/110/110
f 20/112/112 19/113/113 12/111/111
f 12/111/111 19/113/113 18/116/116
f 12/111/111 18/116/116 11/118/118
f 11/118/118 18/116/116 17/117/117
f 30/114/114 29/115/115 19/113/113
f 19/113/113 29/115/115 18/116/116
usemtl 0,0,0
f 5/119/119 43/120/120 7/122/122
f 7/122/122 43/120/120 45/121/121
f 43/123/123 44/124/124 45/126/126
f 45/126/126 44/124/124 46/125/125
f 44/128/128 32/148/148 6/127/127
f 6/127/127 32/148/148 16/144/144
f 6/127/127 16/144/144 10/131/131
f 43/129/129 36/140/140 44/128/128
f 44/128/128 36/140/140 37/146/146
f 44/128/128 37/146/146 38/147/147
f 5/130/130 21/138/138 43/129/129
f 43/129/129 21/138/138 35/139/139
f 43/129/129 35/139/139 36/140/140
f 6/127/127 9/132/132 5/130/130
f 5/130/130 9/132/132 13/133/133
f 5/130/130 13/133/133 21/138/138
f 21/138/138 13/133/133 22/137/137
f 22/137/137 13/133/133 14/134/134
f 22/137/137 14/134/134 26/135/135
f 10/131/131 9/132/132 6/127/127
f 26/135/135 25/136/136 22/137/137
f 37/146/146 36/140/140 31/145/145
f 31/145/145 36/140/140 26/141/141
f 31/145/145 26/141/141 27/142/142
f 15/143/143 16/144/144 27/142/142
f 27/142/142 16/144/144 32/148/148
f 27/142/142 32/148/148 31/145/145
f 38/147/147 32/148/148 44/128/128
usemtl 255,255,255
f 4/152/152 50/149/149 46/156/156
f 46/156/156 50/149/149 49/150/150
f 46/156/156 49/150/150 45/155/155
f 45/155/155 49/150/150 3/151/151
f 45/155/155 3/151/151 7/154/154
f 7/154/154 3/151/151 4/152/152
f 7/154/154 4/152/152 8/153/153
f 8/153/153 4/152/152 46/156/156
# 50 vertices
# 156 texture params
# 156 normals
# 98 facets

# 1 groups
